<svg width="1440" height="82" viewBox="0 0 1440 82" preserveAspectRatio="none" fill="none" xmlns="http://www.w3.org/2000/svg">
<path d="M1440 79.6L1329.2 81.8L1218.5 68.6L1107.7 66.4L996.9 70.8H886.2L775.4 77.4L664.6 62L553.8 66.4H443.1L332.3 81.8L221.5 73H110.8L0 77.4V62H110.8H221.5H332.3H443.1H553.8H664.6H775.4H886.2H996.9H1107.7H1218.5H1329.2H1440V79.6Z" fill="#2BA016"/>
<g clip-path="url(#clip0_216_32)">
<path d="M0 7L110.8 0L221.5 42L332.3 49L443.1 35H553.8L664.6 14L775.4 63L886.2 49H996.9L1107.7 0L1218.5 28H1329.2L1440 14V63H1329.2H1218.5H1107.7H996.9H886.2H775.4H664.6H553.8H443.1H332.3H221.5H110.8H0V7Z" fill="#2BA016"/>
</g>
<defs>
<clipPath id="clip0_216_32">
<rect width="1440" height="63" fill="white"/>
</clipPath>
</defs>
</svg>
